<svg width="1129" height="857" viewBox="0 0 1129 857" fill="none" xmlns="http://www.w3.org/2000/svg">
<circle cx="565" cy="428" r="303" fill="#21B5F4"/>
<path d="M403.641 321.25L470.578 488.312L537.516 321.25H572.531V526H545.531V446.266L548.062 360.203L480.844 526H460.172L393.094 360.625L395.766 446.266V526H368.766V321.25H403.641ZM620.203 526V321.25H687.141C709.359 321.25 726.047 325.844 737.203 335.031C748.453 344.219 754.078 357.812 754.078 375.812C754.078 385.375 751.359 393.859 745.922 401.266C740.484 408.578 733.078 414.25 723.703 418.281C734.766 421.375 743.484 427.281 749.859 436C756.328 444.625 759.562 454.938 759.562 466.938C759.562 485.312 753.609 499.75 741.703 510.25C729.797 520.75 712.969 526 691.219 526H620.203ZM647.203 430.234V503.922H691.781C704.344 503.922 714.234 500.688 721.453 494.219C728.766 487.656 732.422 478.656 732.422 467.219C732.422 442.562 719.016 430.234 692.203 430.234H647.203ZM647.203 408.578H687.984C699.797 408.578 709.219 405.625 716.25 399.719C723.375 393.812 726.938 385.797 726.938 375.672C726.938 364.422 723.656 356.266 717.094 351.203C710.531 346.047 700.547 343.469 687.141 343.469H647.203V408.578Z" fill="white"/>
</svg>
